<svg width="120" height="120" viewBox="0 0 120 120" fill="none" xmlns="http://www.w3.org/2000/svg">
  <rect width="120" height="120" rx="24" fill="#0F766E"/>
  <path d="M26 60C26 41.2223 41.2223 26 60 26C74.9425 26 87.633 35.6432 92.2203 49.0335L81.816 52.5965C78.8018 43.8895 70.5284 37.6667 60 37.6667C47.6656 37.6667 37.6667 47.6656 37.6667 60C37.6667 72.3344 47.6656 82.3333 60 82.3333C69.619 82.3333 77.817 76.253 81.0107 67.7222H60V56.0556H94V60C94 78.7777 78.7777 94 60 94C41.2223 94 26 78.7777 26 60Z" fill="white"/>
</svg>
